<?xml version="1.0" encoding="UTF-8"?>
<!DOCTYPE svg PUBLIC "-//W3C//DTD SVG 1.1//EN" "http://www.w3.org/Graphics/SVG/1.1/DTD/svg11.dtd">
<!-- Creator: CorelDRAW X5 -->
<svg xmlns="http://www.w3.org/2000/svg" xml:space="preserve" width="2048px" height="2048px" style="shape-rendering:geometricPrecision; text-rendering:geometricPrecision; image-rendering:optimizeQuality; fill-rule:evenodd; clip-rule:evenodd"
viewBox="0 0 2048 2048"
 xmlns:xlink="http://www.w3.org/1999/xlink">
 <defs>
  <style type="text/css">
   <![CDATA[
    .fil1 {fill:none}
    .fil0 {fill:#212121;fill-rule:nonzero}
   ]]>
  </style>
 </defs>
 <g id="Layer_x0020_1">
  <metadata id="CorelCorpID_0Corel-Layer"/>
  <path class="fil0" d="M288 244l1472 0 32 0 0 32 0 844 0 32 -32 0 -1472 0 -32 0 0 -32 0 -844 0 -32 32 0zm1440 64l-1408 0 0 780 1408 0 0 -780z"/>
  <g id="_542435536">
   <path class="fil0" d="M910 1130c0,-18 14,-32 32,-32 18,0 32,14 32,32l0 539c0,18 -14,32 -32,32 -18,0 -32,-14 -32,-32l0 -539z"/>
   <path class="fil0" d="M1074 1130c0,-18 14,-32 32,-32 18,0 32,14 32,32l0 539c0,18 -14,32 -32,32 -18,0 -32,-14 -32,-32l0 -539z"/>
  </g>
  <path class="fil0" d="M880 1728l288 0 0 -27 -288 0 0 27zm320 64l-352 0 -32 0 0 -32 0 -91 0 -32 32 0 352 0 32 0 0 32 0 91 0 32 -32 0z"/>
  <path class="fil0" d="M662 1108c7,-6 17,-5 22,2 6,7 5,17 -2,22l-192 160c-7,6 -17,5 -22,-2 -6,-7 -5,-17 2,-22l192 -160z"/>
  <path class="fil0" d="M384 1209l96 0c9,0 16,7 16,16l0 64c0,9 -7,16 -16,16l-96 0c-9,0 -16,-7 -16,-16l0 -64c0,-9 7,-16 16,-16zm80 32l-64 0 0 32 64 0 0 -32z"/>
  <path class="fil0" d="M1590 1108c7,-6 17,-5 22,2 6,7 5,17 -2,22l-192 160c-7,6 -17,5 -22,-2 -6,-7 -5,-17 2,-22l192 -160z"/>
  <path class="fil0" d="M1312 1209l96 0c9,0 16,7 16,16l0 64c0,9 -7,16 -16,16l-96 0c-9,0 -16,-7 -16,-16l0 -64c0,-9 7,-16 16,-16zm80 32l-64 0 0 32 64 0 0 -32z"/>
  <g id="_249312904">
   <polygon class="fil0" points="552,526 942,526 942,590 552,590 "/>
   <polygon class="fil0" points="552,678 1496,678 1496,742 552,742 "/>
   <polygon class="fil0" points="552,806 1496,806 1496,870 552,870 "/>
  </g>
 </g>
 <rect class="fil1" width="2048" height="2048"/>
</svg>
